<svg aria-hidden="true" style="position: absolute; width: 0; height: 0; overflow: hidden;" version="1.1" xmlns="http://www.w3.org/2000/svg" xmlns:xlink="http://www.w3.org/1999/xlink">
  <defs>
  <symbol id="icon-arrow-left" viewBox="0 0 43 32">
  <title>arrow-left</title>
  <path d="M42.942 15.013h-39.575l13.605-13.62c0.015-0.046-1.377-1.393-1.377-1.393l-15.304 15.304c0 0.015-0.015 0.015-0.031 0.031l-0.061 0.061c-0.015 0.015-0.031 0.031-0.031 0.046-0.015 0.015-0.031 0.046-0.046 0.077-0.015 0.015-0.015 0.046-0.031 0.061 0 0.015-0.015 0.031-0.015 0.046v0.031c-0.015 0.015-0.015 0.046-0.015 0.061 0 0.031-0.015 0.046-0.015 0.077 0 0.015 0 0.046-0.015 0.061 0 0.031 0 0.046-0.015 0.077v0.153c0 0.031 0 0.046 0.015 0.077 0 0.015 0 0.046 0.015 0.061 0 0.031 0.015 0.046 0.015 0.077 0 0.015 0.015 0.046 0.015 0.061s0 0.015 0.015 0.031c0 0.015 0.015 0.031 0.031 0.046s0.015 0.046 0.031 0.061c0.015 0.031 0.031 0.046 0.046 0.077 0.015 0.015 0.031 0.031 0.031 0.046 0.015 0.015 0.031 0.046 0.061 0.061l15.334 15.334c0 0.015 1.393-1.393 1.393-1.393l-13.651-13.636h39.575v-1.974z"></path>
  </symbol>
  <symbol id="icon-arrow-right" viewBox="0 0 43 32">
  <title>arrow-right</title>
  <path d="M0 16.987h39.575l-13.605 13.62c0 0.061 1.393 1.408 1.393 1.393l15.304-15.304c0-0.015 0.015-0.015 0.031-0.031l0.061-0.061c0.015-0.015 0.031-0.031 0.031-0.046 0.015-0.015 0.031-0.046 0.046-0.077 0.015-0.015 0.015-0.046 0.031-0.061 0-0.015 0.015-0.031 0.015-0.046v-0.031c0.015-0.015 0.015-0.046 0.015-0.061 0-0.031 0.015-0.046 0.015-0.077 0-0.015 0-0.046 0.015-0.061 0-0.031 0-0.046 0.015-0.077v-0.153c0-0.031 0-0.046-0.015-0.077 0-0.015 0-0.046-0.015-0.061 0-0.031-0.015-0.046-0.015-0.077 0-0.015-0.015-0.046-0.015-0.061s0-0.015-0.015-0.031c0-0.015-0.015-0.031-0.031-0.046s-0.015-0.046-0.031-0.061c-0.015-0.031-0.031-0.046-0.046-0.077-0.015-0.015-0.031-0.031-0.031-0.046-0.015-0.015-0.031-0.046-0.061-0.061 0.015 0 0-0.015 0-0.015l-15.304-15.304c0-0.015-1.393 1.393-1.393 1.393l13.605 13.62h-39.575v1.974z"></path>
  </symbol>
  <symbol id="icon-moon" viewBox="0 0 32 32">
  <title>moon</title>
  <path d="M16.166 32c-8.912 0-16.166-7.254-16.166-16.166 0-7.585 5.385-14.242 12.804-15.812 0.365-0.077 0.741 0.033 1.006 0.299s0.376 0.641 0.31 0.995c-0.177 0.896-0.265 1.802-0.265 2.676 0 7.696 6.258 13.954 13.954 13.954 0.962 0 1.935-0.1 2.897-0.31 0.365-0.077 0.741 0.033 1.006 0.299s0.376 0.63 0.31 0.995c-1.471 7.574-8.138 13.070-15.856 13.070zM11.71 2.61c-5.595 1.891-9.498 7.22-9.498 13.225 0 7.696 6.258 13.954 13.954 13.954 6.115 0 11.478-4.003 13.291-9.708-0.553 0.055-1.095 0.088-1.648 0.088-8.912 0-16.166-7.254-16.166-16.166 0-0.464 0.022-0.929 0.066-1.393z"></path>
  </symbol>
  <symbol id="icon-compass" viewBox="0 0 32 32">
  <title>compass</title>
  <path d="M15.994 32c-8.821 0-15.994-7.185-15.994-16.006s7.173-15.994 15.994-15.994c8.821 0 15.994 7.173 15.994 15.994s-7.173 16.006-15.994 16.006zM15.994 2.371c-7.505 0-13.623 6.118-13.623 13.623s6.118 13.623 13.623 13.623 13.623-6.118 13.623-13.623-6.106-13.623-13.623-13.623z"></path>
  <path d="M17.808 17.808l2.893-6.568-6.521 2.94-2.881 6.58 6.509-2.952z"></path>
  </symbol>
  <symbol id="icon-pip" viewBox="0 0 26 32">
  <title>pip</title>
  <path d="M13.182 32.011c-0.25-0.002-0.479-0.089-0.66-0.235l0.002 0.002c-1.284-1.061-12.524-10.178-12.524-18.595 0-7.28 5.902-13.182 13.182-13.182s13.182 5.902 13.182 13.182v0c0 8.576-12.28 18.584-12.842 18.765-0.101 0.040-0.217 0.063-0.339 0.064h-0zM13.182 2.123c-6.106 0.006-11.053 4.954-11.059 11.059v0.001c0 5.721 6.888 12.917 11.049 16.387 2.452-2.070 11.070-9.828 11.070-16.387-0.006-6.106-4.954-11.053-11.059-11.059h-0.001z"></path>
  <path d="M13.182 19.296c-3.382 0-6.124-2.742-6.124-6.124s2.742-6.124 6.124-6.124c3.382 0 6.124 2.742 6.124 6.124 0 0.004 0 0.007 0 0.011v-0.001c-0.006 3.378-2.746 6.113-6.124 6.113 0 0 0 0 0 0v0zM13.182 9.181c-2.21 0-4.001 1.791-4.001 4.001s1.791 4.001 4.001 4.001c2.21 0 4.001-1.791 4.001-4.001v0c0-2.21-1.791-4.001-4.001-4.001v0z"></path>
  </symbol>
  <symbol id="icon-sun" viewBox="0 0 32 32">
  <title>sun</title>
  <path d="M15.761 27.317c-6.244 0-11.321-5.077-11.321-11.321s5.077-11.321 11.321-11.321 11.321 5.077 11.321 11.321-5.077 11.321-11.321 11.321zM15.761 6.353c-5.321 0-9.643 4.33-9.643 9.643s4.33 9.643 9.643 9.643 9.643-4.33 9.643-9.643-4.322-9.643-9.643-9.643z"></path>
  <path d="M14.099 31.992v0 0c-0.579-0.059-0.999-0.571-0.94-1.15v0c0.059-0.579 0.579-0.999 1.15-0.94v0c0.579 0.059 0.999 0.579 0.94 1.15v0c-0.050 0.546-0.512 0.948-1.041 0.948v0c-0.034 0-0.076 0-0.109-0.008zM19.42 30.615c-0.176-0.546 0.117-1.141 0.671-1.318v0c0.554-0.185 1.141 0.117 1.326 0.671v0c0.176 0.554-0.126 1.141-0.671 1.318v0c-0.109 0.042-0.218 0.059-0.327 0.059v0c-0.445 0-0.856-0.285-0.999-0.73zM7.738 29.935c-0.504-0.285-0.671-0.932-0.386-1.435v0c0.294-0.504 0.932-0.671 1.435-0.386v0c0.504 0.294 0.671 0.932 0.386 1.435v0c-0.193 0.336-0.546 0.529-0.915 0.529v0c-0.176 0-0.352-0.050-0.52-0.143zM25.043 27.863c-0.386-0.428-0.352-1.091 0.076-1.477v0c0.436-0.386 1.099-0.352 1.485 0.076v0c0.386 0.428 0.352 1.091-0.076 1.485v0c-0.201 0.176-0.453 0.269-0.705 0.269v0c-0.285 0-0.571-0.117-0.78-0.352zM2.769 25.471c-0.344-0.47-0.243-1.125 0.227-1.469v0c0.47-0.336 1.125-0.235 1.469 0.235v0c0.336 0.462 0.235 1.125-0.227 1.46v0c-0.193 0.143-0.411 0.201-0.621 0.201v0c-0.327 0-0.646-0.143-0.848-0.428zM29.071 23.071c-0.529-0.235-0.764-0.856-0.529-1.385v0c0.235-0.529 0.848-0.772 1.385-0.537v0c0.529 0.243 0.764 0.856 0.529 1.385v0c-0.176 0.394-0.562 0.629-0.957 0.629v0c-0.143 0-0.294-0.034-0.428-0.092zM0.042 19.37c-0.126-0.562 0.235-1.125 0.806-1.242v0c0.562-0.117 1.116 0.235 1.242 0.806v0c0.118 0.562-0.243 1.125-0.806 1.242v0c-0.076 0.017-0.151 0.025-0.218 0.025v0c-0.487 0-0.923-0.336-1.024-0.831zM29.742 15.996v0 0c0-0.017 0-0.034 0-0.059v0c0-0.579 0.462-1.049 1.041-1.049v0c0.579 0 1.057 0.462 1.057 1.041v0c0 0.017 0 0.025 0 0.042v0c0 0.008 0 0.017 0 0.025v0 0 0c0 0.579-0.47 1.049-1.049 1.049v0c-0.579 0-1.049-0.47-1.049-1.049zM0.839 13.931c-0.571-0.117-0.932-0.671-0.814-1.242v0c0.117-0.571 0.671-0.932 1.242-0.814v0c0.562 0.117 0.932 0.68 0.806 1.242v0c-0.101 0.495-0.537 0.839-1.024 0.839v0c-0.067 0-0.143-0.008-0.21-0.025zM28.517 10.264c-0.243-0.529-0.008-1.15 0.52-1.385v0c0.529-0.243 1.15-0.008 1.393 0.52v0c0.235 0.529 0 1.15-0.529 1.393v0c-0.134 0.059-0.285 0.092-0.428 0.092v0c-0.403 0-0.789-0.235-0.957-0.621zM2.962 8.040c-0.47-0.336-0.571-0.99-0.235-1.46v0c0 0 0 0 0.008 0v0c0.336-0.47 0.99-0.579 1.46-0.235v0c0.47 0.344 0.571 0.999 0.235 1.469v0c-0.21 0.277-0.529 0.428-0.856 0.428v0c-0.21 0-0.42-0.067-0.613-0.201zM25.076 5.572c-0.428-0.386-0.462-1.049-0.076-1.477v0c0.386-0.428 1.049-0.47 1.477-0.084v0c0.428 0.386 0.47 1.049 0.084 1.485v0c-0.21 0.227-0.495 0.344-0.78 0.344v0c-0.252 0-0.504-0.084-0.705-0.269zM7.301 3.525c-0.285-0.495-0.117-1.141 0.378-1.427v0 0 0c0.504-0.294 1.15-0.126 1.435 0.378v0c0.294 0.495 0.126 1.141-0.378 1.435v0c-0.168 0.092-0.344 0.143-0.529 0.143v0c-0.361 0-0.705-0.193-0.906-0.529zM20.041 2.686c-0.554-0.176-0.856-0.772-0.68-1.318v0c0.176-0.554 0.764-0.856 1.318-0.68v0c0.554 0.176 0.856 0.764 0.68 1.318v0c-0.143 0.445-0.554 0.73-0.999 0.73v0c-0.109 0-0.21-0.017-0.319-0.050zM13.1 1.167c-0.059-0.579 0.361-1.091 0.932-1.158v0c0.579-0.059 1.091 0.361 1.158 0.932v0c0.059 0.579-0.361 1.099-0.932 1.158v0c-0.042 0-0.076 0.008-0.117 0.008v0c-0.529 0-0.982-0.403-1.041-0.94z"></path>
  </symbol>
  <symbol id="icon-wind" viewBox="0 0 36 32">
  <title>wind</title>
  <path d="M28.282 12.669v-0.011h-4.765c0.872-1.319 1.363-2.867 1.363-4.503 0-4.503-3.663-8.155-8.155-8.155s-8.155 3.663-8.155 8.155h2.181c0-3.293 2.682-5.975 5.975-5.975s5.975 2.682 5.975 5.975c0 1.734-0.752 3.358-2.061 4.503h-20.639v2.181h27.966c3.293 0 5.975 2.682 5.975 5.975s-2.682 5.975-5.975 5.975-5.975-2.682-5.975-5.975h-2.181c0 4.492 3.663 8.155 8.155 8.155s8.155-3.663 8.155-8.155c0-4.394-3.489-7.97-7.839-8.144z"></path>
  <path d="M11.11 15.722v-0.033h-11.11v2.181h10.412c3.293 0 5.975 2.682 5.975 5.975s-2.682 5.975-5.975 5.975-5.975-2.682-5.975-5.975h-2.181c0 4.492 3.663 8.155 8.155 8.155s8.155-3.663 8.155-8.155c0-4.274-3.282-7.774-7.458-8.123z"></path>
  </symbol>
  </defs>
  </svg>